<svg width="1100" height="720" viewBox="0 0 1100 720" fill="none" xmlns="http://www.w3.org/2000/svg">
  <rect width="1100" height="720" fill="#071018"/>
  <rect x="36" y="34" width="1028" height="652" fill="#0B121A" stroke="rgba(255,255,255,.12)"/>
  <rect x="72" y="76" width="956" height="74" fill="#101923" stroke="rgba(255,255,255,.09)"/>
  <circle cx="112" cy="113" r="10" fill="#B89CFF"/><circle cx="144" cy="113" r="10" fill="#6EE7F5" opacity=".75"/><circle cx="176" cy="113" r="10" fill="#607085" opacity=".55"/>
  <text x="222" y="122" fill="#EAF6FF" font-family="Arial, sans-serif" font-size="26" font-weight="700">AIGC VISUAL WORKFLOW</text>
  <rect x="76" y="184" width="226" height="420" fill="#0E1721" stroke="rgba(255,255,255,.09)"/>
  <rect x="332" y="184" width="696" height="420" fill="#0E1721" stroke="rgba(255,255,255,.09)"/>
  <rect x="104" y="220" width="166" height="12" fill="#B89CFF" opacity=".78"/><rect x="104" y="262" width="126" height="10" fill="#6C7A8F" opacity=".52"/><rect x="104" y="294" width="146" height="10" fill="#6C7A8F" opacity=".42"/>
  <rect x="392" y="238" width="168" height="118" fill="#111F2B" stroke="#B89CFF" opacity=".88"/><rect x="650" y="238" width="168" height="118" fill="#111F2B" stroke="#6EE7F5" opacity=".88"/><rect x="520" y="438" width="168" height="118" fill="#111F2B" stroke="#B89CFF" opacity=".88"/>
  <path d="M560 297 H650" stroke="#B89CFF" stroke-width="3"/><path d="M734 356 L610 438" stroke="#6EE7F5" stroke-width="3"/><path d="M476 356 L604 438" stroke="#B89CFF" stroke-width="3"/>
  <circle cx="476" cy="297" r="28" fill="#B89CFF" opacity=".22"/><circle cx="734" cy="297" r="28" fill="#6EE7F5" opacity=".18"/><circle cx="604" cy="497" r="28" fill="#B89CFF" opacity=".18"/>
  <path d="M874 248 C935 314 926 444 856 506" stroke="#6EE7F5" stroke-opacity=".5" stroke-width="3" fill="none"/>
</svg>
