<svg width="1100" height="720" viewBox="0 0 1100 720" fill="none" xmlns="http://www.w3.org/2000/svg">
  <rect width="1100" height="720" fill="#071018"/>
  <rect x="36" y="34" width="1028" height="652" fill="#0B121A" stroke="rgba(255,255,255,.12)"/>
  <rect x="72" y="76" width="956" height="74" fill="#101923" stroke="rgba(255,255,255,.09)"/>
  <circle cx="112" cy="113" r="10" fill="#6EE7F5"/><circle cx="144" cy="113" r="10" fill="#5B8CFF" opacity=".75"/><circle cx="176" cy="113" r="10" fill="#607085" opacity=".55"/>
  <text x="222" y="122" fill="#EAF6FF" font-family="Arial, sans-serif" font-size="26" font-weight="700">DATA INTELLIGENCE PLATFORM</text>
  <rect x="76" y="184" width="226" height="420" fill="#0E1721" stroke="rgba(255,255,255,.09)"/>
  <rect x="332" y="184" width="696" height="420" fill="#0E1721" stroke="rgba(255,255,255,.09)"/>
  <rect x="104" y="220" width="166" height="12" fill="#6EE7F5" opacity=".78"/><rect x="104" y="262" width="126" height="10" fill="#6C7A8F" opacity=".52"/><rect x="104" y="294" width="146" height="10" fill="#6C7A8F" opacity=".42"/><rect x="104" y="326" width="106" height="10" fill="#6C7A8F" opacity=".32"/>
  <rect x="104" y="390" width="146" height="112" fill="#111F2B" stroke="rgba(255,255,255,.08)"/><rect x="104" y="530" width="166" height="38" fill="#5B8CFF" opacity=".35"/>
  <rect x="372" y="224" width="182" height="138" fill="#111F2B" stroke="rgba(255,255,255,.08)"/><rect x="582" y="224" width="182" height="138" fill="#111F2B" stroke="rgba(255,255,255,.08)"/><rect x="792" y="224" width="182" height="138" fill="#111F2B" stroke="rgba(255,255,255,.08)"/>
  <path d="M383 536 C462 450 505 490 574 408 C634 336 705 404 760 330 C819 250 885 296 966 244" stroke="#6EE7F5" stroke-width="5" fill="none"/>
  <path d="M383 572 L966 572M383 514 L966 514M383 456 L966 456" stroke="rgba(255,255,255,.1)"/>
  <circle cx="574" cy="408" r="8" fill="#6EE7F5"/><circle cx="760" cy="330" r="8" fill="#5B8CFF"/>
</svg>
